<svg width="24" height="24" viewBox="0 0 24 24" fill="none" xmlns="http://www.w3.org/2000/svg">
<path d="M11.5 15.5C13.433 15.5 15 13.933 15 12C15 10.067 13.433 8.5 11.5 8.5C9.567 8.5 8 10.067 8 12C8 13.933 9.567 15.5 11.5 15.5Z" stroke="#121331" stroke-width="2" stroke-miterlimit="10"/>
<path d="M16.1332 19.9969C14.8955 20.6379 13.49 21 12 21C7.02944 21 3 16.9706 3 12C3 7.02944 7.02944 3 12 3C16.9706 3 21 7.02944 21 12C21 12.8234 20.8894 13.6209 20.6823 14.3786C20.3763 15.4981 19.2674 16.1349 18.1068 16.1349V16.1349C16.3909 16.1349 15 14.744 15 13.0282V8.5" stroke="#121331" stroke-width="2" stroke-linecap="round" stroke-linejoin="round"/>
</svg>
