<svg xmlns="http://www.w3.org/2000/svg" viewBox="0 0 750 280"><g fill="none" stroke-width="2"><path stroke="#b29dca" d="M282.5 44.21c-60.56 60.16-53.38 159.48 17.61 207.9 54.53 37.2 127.09 29.38 172.89-17.79" vector-effect="non-scaling-stroke"/><path stroke="#aa93c5" d="M473 234.32c55.23-57.89 48.76-150.82-14.57-199.76C405.49-6.36 330.84-2.26 282.5 44.21" vector-effect="non-scaling-stroke"/><path stroke="#643897" d="M473 234.32q-2.46-1.83-4.49-4.06c-15.47-16.96-32.6-33.22-49.17-49.13q-9.08-8.72-16.93-18.52" vector-effect="non-scaling-stroke"/><path stroke="#aa93c5" d="M402.41 162.61q7.49-.68 14.22-.26.62.04.62-.58v-7.98q0-.45-.46-.46l-30.5-.31q-.47-.01-.47-.48l-.23-24.38q-.01-1 1-.99l26.15.34q.51.01.51-.5v-7.98q0-.53-.53-.53H386q-.5 0-.5-.5V94.47q0-.53.53-.54l28.7-.13q.52-.01.52-.53v-7.64q0-.63-.63-.63h-38.79a.37.37 0 0 0-.37.37l-.12 50.78" vector-effect="non-scaling-stroke"/><path stroke="#643897" d="m375.34 136.15-18.66-17.66" vector-effect="non-scaling-stroke"/><path stroke="#aa93c5" d="m356.68 118.49-.18-32.8q-.01-.69-.69-.69h-8.51q-.53 0-.53.53l-.06 21.22" vector-effect="non-scaling-stroke"/><path stroke="#643897" d="M346.71 106.75q-.25.24-.55.26-.59.03-.88-.25L282.5 44.21" vector-effect="non-scaling-stroke"/><path stroke="#b29dca" d="m346.71 106.75.13 41.57a.08.07 28.2 0 1-.14.04l-40.26-63.14q-.3-.47-.86-.47h-11.33q-.5 0-.5.5v76.72q0 .53.53.53h8.98a.52.52 0 0 0 .52-.52c0-20.95 1.13-42.95-.62-63.78q-.04-.57.41-.22.4.3.4.91-.01.49.26.91l39.79 61.75q.39.61.83.65 5.62.58 11.23-.05.5-.06.5-.57-.16-13.26-.08-26.57c.03-3.88-.48-10.95.18-16.52M375.34 136.15l.15 25.79q.01.56.57.56l26.35.11" vector-effect="non-scaling-stroke"/><path stroke="#aa93c5" d="M445.75 94.5v67.44q0 .32.32.32l8.43-.01q.5 0 .5-.5v-67.5q0-.5.5-.5h21.53q.72 0 .72-.72l-.07-7.41q-.01-.62-.62-.62h-52.81q-.75 0-.75.75V93q0 .75.75.75H445q.75 0 .75.75" vector-effect="non-scaling-stroke"/><path stroke="#b29dca" d="M278.45 157.16a6.23 6.23 0 0 0-6.23-6.23 6.23 6.23 0 0 0-6.23 6.23 6.23 6.23 0 0 0 6.23 6.23 6.23 6.23 0 0 0 6.23-6.23M341.6 212.51c-18.26-1.83-15.1-29.77 2.59-28.64 2.21.14 4.64 1.16 6.92 1.86q.67.21.61-.49l-.3-3.59q-.05-.53-.55-.68c-34.32-9.9-36.34 45.44.12 34.03q.51-.16.51-.7v-3.28q0-.69-.65-.46c-2.86 1.01-6.28 2.25-9.25 1.95M367.04 216.778a13.83 12.88 96.6 0 0 14.385-12.258 13.83 12.88 96.6 0 0-11.205-15.218 13.83 12.88 96.6 0 0-14.385 12.258 13.83 12.88 96.6 0 0 11.205 15.218M392.01 193.69c-.08-1.18.63-4.03-1.76-3.42q-.5.13-1.01.02-.71-.16-1.45 0-.54.12-.54.67v24.26q0 .78.78.78h3.43q.54 0 .53-.54-.05-3.53.2-13.51.21-8.63 8.23-7.64.57.08.53-.5l-.28-3.46q-.05-.63-.68-.63-5.01-.05-7.74 4.03-.21.32-.24-.06M408.45 204.5h16.57q.49 0 .56-.49c.85-5.86-1.54-12.84-8-14.02-19.92-3.65-20.95 34.74 5.21 25.05q.52-.19.64-.73l.68-2.96q.2-.88-.67-.64c-2.74.75-5.78 2.3-8.45 2.01q-6.27-.68-7.12-7.57-.08-.65.58-.65" vector-effect="non-scaling-stroke"/><path stroke="#b29dca" d="M368.54 212.9a9.64 8.07 90.6 0 0 8.17-9.555 9.64 8.07 90.6 0 0-7.97-9.725 9.64 8.07 90.6 0 0-8.17 9.555 9.64 8.07 90.6 0 0 7.97 9.724M408.41 200.61l12.4-.18a.15.15 0 0 0 .14-.15v-.05a6.4 6.33 89.2 0 0-6.42-6.31h-.04a6.4 6.33 89.2 0 0-6.24 6.49v.05a.15.15 0 0 0 .16.15" vector-effect="non-scaling-stroke"/></g><path fill="#f8f8f8" d="M0 0h750v280H0V0Zm282.5 44.21c-60.56 60.16-53.38 159.48 17.61 207.9 54.53 37.2 127.09 29.38 172.89-17.79 55.23-57.89 48.76-150.82-14.57-199.76C405.49-6.36 330.84-2.26 282.5 44.21Z"/><path fill="#5c2d91" d="M473 234.32q-2.46-1.83-4.49-4.06c-15.47-16.96-32.6-33.22-49.17-49.13q-9.08-8.72-16.93-18.52 7.49-.68 14.22-.26.62.04.62-.58v-7.98q0-.45-.46-.46l-30.5-.31q-.47-.01-.47-.48l-.23-24.38q-.01-1 1-.99l26.15.34q.51.01.51-.5v-7.98q0-.53-.53-.53H386q-.5 0-.5-.5V94.47q0-.53.53-.54l28.7-.13q.52-.01.52-.53v-7.64q0-.63-.63-.63h-38.79a.37.37 0 0 0-.37.37l-.12 50.78-18.66-17.66-.18-32.8q-.01-.69-.69-.69h-8.51q-.53 0-.53.53l-.06 21.22q-.25.24-.55.26-.59.03-.88-.25L282.5 44.21c48.34-46.47 122.99-50.57 175.93-9.65 63.33 48.94 69.8 141.87 14.57 199.76ZM445.75 94.5v67.44q0 .32.32.32l8.43-.01q.5 0 .5-.5v-67.5q0-.5.5-.5h21.53q.72 0 .72-.72l-.07-7.41q-.01-.62-.62-.62h-52.81q-.75 0-.75.75V93q0 .75.75.75H445q.75 0 .75.75Z"/><path fill="#6c429c" d="m282.5 44.21 62.78 62.55q.29.28.88.25.3-.02.55-.26l.13 41.57a.08.07 28.2 0 1-.14.04l-40.26-63.14q-.3-.47-.86-.47h-11.33q-.5 0-.5.5v76.72q0 .53.53.53h8.98a.52.52 0 0 0 .52-.52c0-20.95 1.13-42.95-.62-63.78q-.04-.57.41-.22.4.3.4.91-.01.49.26.91l39.79 61.75q.39.61.83.65 5.62.58 11.23-.05.5-.06.5-.57-.16-13.26-.08-26.57c.03-3.88-.48-10.95.18-16.52l18.66 17.66.15 25.79q.01.56.57.56l26.35.11q7.85 9.8 16.93 18.52c16.57 15.91 33.7 32.17 49.17 49.13q2.03 2.23 4.49 4.06c-45.8 47.17-118.36 54.99-172.89 17.79-70.99-48.42-78.17-147.74-17.61-207.9Zm-4.05 112.95a6.23 6.23 0 0 0-6.23-6.23 6.23 6.23 0 0 0-6.23 6.23 6.23 6.23 0 0 0 6.23 6.23 6.23 6.23 0 0 0 6.23-6.23Zm63.15 55.35c-18.26-1.83-15.1-29.77 2.59-28.64 2.21.14 4.64 1.16 6.92 1.86q.67.21.61-.49l-.3-3.59q-.05-.53-.55-.68c-34.32-9.9-36.34 45.44.12 34.03q.51-.16.51-.7v-3.28q0-.69-.65-.46c-2.86 1.01-6.28 2.25-9.25 1.95Zm25.44 4.268a13.83 12.88 96.6 0 0 14.385-12.258 13.83 12.88 96.6 0 0-11.205-15.218 13.83 12.88 96.6 0 0-14.385 12.258 13.83 12.88 96.6 0 0 11.205 15.218Zm24.97-23.088c-.08-1.18.63-4.03-1.76-3.42q-.5.13-1.01.02-.71-.16-1.45 0-.54.12-.54.67v24.26q0 .78.78.78h3.43q.54 0 .53-.54-.05-3.53.2-13.51.21-8.63 8.23-7.64.57.08.53-.5l-.28-3.46q-.05-.63-.68-.63-5.01-.05-7.74 4.03-.21.32-.24-.06Zm16.44 10.81h16.57q.49 0 .56-.49c.85-5.86-1.54-12.84-8-14.02-19.92-3.65-20.95 34.74 5.21 25.05q.52-.19.64-.73l.68-2.96q.2-.88-.67-.64c-2.74.75-5.78 2.3-8.45 2.01q-6.27-.68-7.12-7.57-.08-.65.58-.65Z"/><path fill="#f8f8f8" d="m346.71 106.75.06-21.22q0-.53.53-.53h8.51q.68 0 .69.69l.18 32.8c-.66 5.57-.15 12.64-.18 16.52q-.08 13.31.08 26.57 0 .51-.5.57-5.61.63-11.23.05-.44-.04-.83-.65L304.23 99.8q-.27-.42-.26-.91 0-.61-.4-.91-.45-.35-.41.22c1.75 20.83.62 42.83.62 63.78a.52.52 0 0 1-.52.52h-8.98q-.53 0-.53-.53V85.25q0-.5.5-.5h11.33q.56 0 .86.47l40.26 63.14a.08.07 28.2 0 0 .14-.04l-.13-41.57ZM402.41 162.61l-26.35-.11q-.56 0-.57-.56l-.15-25.79.12-50.78a.37.37 0 0 1 .37-.37h38.79q.63 0 .63.63v7.64q0 .52-.52.53l-28.7.13q-.53.01-.53.54V118q0 .5.5.5h26.72q.53 0 .53.53v7.98q0 .51-.51.5l-26.15-.34q-1.01-.01-1 .99l.23 24.38q0 .47.47.48l30.5.31q.46.01.46.46v7.98q0 .62-.62.58-6.73-.42-14.22.26ZM445 93.75h-20.75q-.75 0-.75-.75v-7.25q0-.75.75-.75h52.81q.61 0 .62.62l.07 7.41q0 .72-.72.72H455.5q-.5 0-.5.5v67.5q0 .5-.5.5l-8.43.01q-.32 0-.32-.32V94.5q0-.75-.75-.75Z"/><circle cx="272.22" cy="157.16" r="6.23" fill="#f8f8f8"/><path fill="#f8f8f8" d="M344.19 183.87c-17.69-1.13-20.85 26.81-2.59 28.64 2.97.3 6.39-.94 9.25-1.95q.65-.23.65.46v3.28q0 .54-.51.7c-36.46 11.41-34.44-43.93-.12-34.03q.5.15.55.68l.3 3.59q.06.7-.61.49c-2.28-.7-4.71-1.72-6.92-1.86Z"/><path fill="#f8f8f8" d="M367.04 216.778a13.83 12.88 96.6 0 1-11.205-15.218 13.83 12.88 96.6 0 1 14.385-12.258 13.83 12.88 96.6 0 1 11.205 15.218 13.83 12.88 96.6 0 1-14.385 12.258Zm1.5-3.879a9.64 8.07 90.6 0 0 8.17-9.554 9.64 8.07 90.6 0 0-7.97-9.725 9.64 8.07 90.6 0 0-8.17 9.555 9.64 8.07 90.6 0 0 7.97 9.724Z"/><path fill="#f8f8f8" d="M392.25 193.75q2.73-4.08 7.74-4.03.63 0 .68.63l.28 3.46q.04.58-.53.5-8.02-.99-8.23 7.64-.25 9.98-.2 13.51.01.54-.53.54h-3.43q-.78 0-.78-.78v-24.26q0-.55.54-.67.74-.16 1.45 0 .51.11 1.01-.02c2.39-.61 1.68 2.24 1.76 3.42q.03.38.24.06ZM407.87 205.15q.85 6.89 7.12 7.57c2.67.29 5.71-1.26 8.45-2.01q.87-.24.67.64l-.68 2.96q-.12.54-.64.73c-26.16 9.69-25.13-28.7-5.21-25.05 6.46 1.18 8.85 8.16 8 14.02q-.07.49-.56.49h-16.57q-.66 0-.58.65Zm.54-4.54 12.4-.18a.15.15 0 0 0 .14-.15v-.05a6.4 6.33 89.2 0 0-6.42-6.31h-.04a6.4 6.33 89.2 0 0-6.24 6.49v.05a.15.15 0 0 0 .16.15Z"/><ellipse fill="#6c429c" rx="9.64" ry="8.07" transform="rotate(90.6 83.749 284.03)"/><path fill="#6c429c" d="M408.41 200.61a.15.15 0 0 1-.16-.15v-.05a6.4 6.33 89.2 0 1 6.24-6.49h.04a6.4 6.33 89.2 0 1 6.42 6.31v.05a.15.15 0 0 1-.14.15l-12.4.18Z"/></svg>